<svg width="36" height="36" viewBox="0 0 36 36" fill="none" xmlns="http://www.w3.org/2000/svg">
<path d="M18.0002 0C10.8111 0 4.9624 5.84873 4.9624 13.0378C4.9624 21.9596 16.63 35.0573 17.1267 35.6105C17.5933 36.1302 18.408 36.1293 18.8737 35.6105C19.3705 35.0573 31.0381 21.9596 31.0381 13.0378C31.0379 5.84873 25.1893 0 18.0002 0ZM18.0002 19.5974C14.3832 19.5974 11.4406 16.6548 11.4406 13.0378C11.4406 9.42075 14.3833 6.47817 18.0002 6.47817C21.6172 6.47817 24.5598 9.42082 24.5598 13.0378C24.5598 16.6549 21.6172 19.5974 18.0002 19.5974Z" fill="white"/>
</svg>
